<svg id="Capa_1" enable-background="new 0 0 512 512" height="512" viewBox="0 0 512 512" width="512" xmlns="http://www.w3.org/2000/svg" xmlns:xlink="http://www.w3.org/1999/xlink"><linearGradient id="SVGID_1_" gradientUnits="userSpaceOnUse" x1="256" x2="256" y1="481" y2="31"><stop offset="0" stop-color="#5558ff"/><stop offset="1" stop-color="#00c0ff"/></linearGradient><g><g><path d="m211 151h30c8.284 0 15-6.716 15-15s-6.716-15-15-15h-30c-8.284 0-15 6.716-15 15s6.716 15 15 15zm90 90h-90c-8.284 0-15 6.716-15 15s6.716 15 15 15h90c8.284 0 15-6.716 15-15s-6.716-15-15-15zm196 150h-17.58c1.665-4.695 2.58-9.742 2.58-15v-180c0-24.813-20.187-45-45-45h-61v-45c0-41.355-33.645-75-75-75h-150c-8.284 0-15 6.716-15 15v105h-61c-24.813 0-45 20.187-45 45v180c0 5.258.915 10.305 2.58 15h-17.58c-8.284 0-15 6.716-15 15 0 41.355 33.645 75 75 75h362c41.355 0 75-33.645 75-75 0-8.284-6.716-15-15-15zm-181-327.42c12.764 4.527 22.893 14.656 27.42 27.42h-27.42zm-150-2.58h120v45c0 8.284 6.716 15 15 15h45v210h-180zm-106 135c0-8.271 6.729-15 15-15h61v165c0 8.284 6.716 15 15 15h210c8.284 0 15-6.716 15-15v-165h61c8.271 0 15 6.729 15 15v180c0 8.271-6.729 15-15 15h-362c-8.271 0-15-6.729-15-15zm377 255h-362c-19.557 0-36.239-12.539-42.43-30h446.86c-6.191 17.461-22.873 30-42.43 30zm-136-270h-90c-8.284 0-15 6.716-15 15s6.716 15 15 15h90c8.284 0 15-6.716 15-15s-6.716-15-15-15z" fill="url(#SVGID_1_)"/></g></g></svg>